<svg width="78" height="41" viewBox="0 0 78 41" fill="none" xmlns="http://www.w3.org/2000/svg">
<g clip-path="url(#clip0_992_2623)">
<path d="M14.5181 -9.02585e-09L14.5181 18.7871L8.62442 18.7871L8.62442 5.89364L5.87636 5.89364L5.87636 34.5668L8.62442 34.5668L8.62442 21.5524L14.5181 21.5524L14.5181 40.4604L11.8737 40.4604L8.6417 37.8679L5.94549 40.4604L2.51542e-08 40.4604L2.76148e-09 4.44183C1.23568e-09 1.98759 1.98759 -1.23568e-09 4.44183 -2.76148e-09L14.5181 -9.02585e-09Z" fill="#B27EE3"/>
<path d="M17.2829 0L31.801 -9.0366e-09L31.801 17.2834L29.1566 20.2043L31.801 23.177L31.801 40.4604L25.9073 40.4604L25.9073 23.1598L23.1593 23.1598L23.1593 40.4432L17.2656 40.4432L17.2656 0L17.2829 0ZM23.1765 17.2834L25.9246 17.2834L25.9246 5.89364L23.1765 5.89364L23.1765 17.2834Z" fill="#B27EE3"/>
<path d="M49.0845 -9.02585e-09L49.0845 40.4432L34.5664 40.4432L34.5664 0L40.46 -3.66407e-09L40.46 34.5668L43.2081 34.5668L43.2081 -5.37253e-09L49.1017 -9.0366e-09L49.0845 -9.02585e-09Z" fill="#B27EE3"/>
<path d="M51.832 0L57.7257 -3.66407e-09L57.7257 34.5668L74.8017 34.5668L74.8017 36.5198C74.8017 38.6975 73.0388 40.4604 70.8611 40.4604L51.832 40.4604L51.832 0Z" fill="#B27EE3"/>
<path d="M60.2656 0L66.1593 -3.66407e-09L66.1593 26.4609L74.801 26.4609L74.801 32.3545L60.2829 32.3545L60.2829 0L60.2656 0Z" fill="#B27EE3"/>
<path d="M68.5273 0L68.5273 24.5251L77.9986 12.2539L68.5273 0Z" fill="#B27EE3"/>
</g>
<defs>
<clipPath id="clip0_992_2623">
<rect width="78" height="40.4432" fill="white"/>
</clipPath>
</defs>
</svg>
