<?xml version="1.0" encoding="UTF-8"?> <!-- Generator: Adobe Illustrator 24.2.0, SVG Export Plug-In . SVG Version: 6.00 Build 0) --> <svg xmlns="http://www.w3.org/2000/svg" xmlns:xlink="http://www.w3.org/1999/xlink" id="Layer_1" x="0px" y="0px" viewBox="0 0 122 42" style="enable-background:new 0 0 122 42;" xml:space="preserve"> <style type="text/css"> .st0{fill:url(#SVGID_1_);} .st1{fill:#2E015B;} </style> <g> <linearGradient id="SVGID_1_" gradientUnits="userSpaceOnUse" x1="104.0276" y1="3.1861" x2="89.2293" y2="18.5102"> <stop offset="0" style="stop-color:#2631FD"></stop> <stop offset="1" style="stop-color:#2A0252"></stop> </linearGradient> <path class="st0" d="M108.99,10.32c-0.2-3.35-3.01-6.04-6.41-6.04H91.11c-3.75,0-6.79,3.07-6.56,6.81c0.2,3.35,3.01,6.04,6.41,6.04 h0.23v3.02c0,0-0.01,0.35,0.2,0.43c0.21,0.08,0.42-0.12,0.42-0.12l3.11-3.08c0,0,0.23-0.24,0.66-0.24c0.51,0,0.24,0,0.24,0h6.6 C106.17,17.13,109.21,14.06,108.99,10.32z M94.12,13.73c-0.41,0.41-0.9,0.74-1.44,0.95C92.16,14.89,91.61,15,91.05,15 c-0.37,0-0.67-0.3-0.67-0.67c0-0.37,0.3-0.67,0.67-0.67c0.39,0,0.77-0.07,1.13-0.22c0.37-0.15,0.71-0.37,0.99-0.66 c0.26-0.26,0.69-0.26,0.95,0C94.38,13.04,94.38,13.46,94.12,13.73z M94.7,9.9c-0.34,0.14-0.74-0.03-0.88-0.37 c-0.15-0.37-0.37-0.71-0.66-0.99c-0.29-0.29-0.62-0.51-0.99-0.66c-0.72-0.29-1.54-0.29-2.26,0c-0.37,0.15-0.71,0.37-0.99,0.66 c-0.29,0.29-0.51,0.62-0.66,0.99c-0.15,0.36-0.22,0.74-0.22,1.13c0,0.39,0.07,0.77,0.22,1.13c0.14,0.34-0.03,0.74-0.37,0.88 c-0.08,0.03-0.17,0.05-0.25,0.05c-0.27,0-0.52-0.16-0.62-0.42c-0.21-0.52-0.32-1.07-0.32-1.64c0-0.56,0.11-1.11,0.32-1.64 c0.22-0.54,0.54-1.02,0.95-1.44c0.41-0.41,0.9-0.74,1.44-0.95c1.04-0.42,2.23-0.42,3.27,0c0.54,0.22,1.02,0.54,1.44,0.95 c0.41,0.41,0.74,0.9,0.95,1.44C95.22,9.36,95.05,9.76,94.7,9.9z M99.7,9.49c-0.16,0.37-0.24,0.76-0.24,1.17 c0,0.37-0.3,0.67-0.67,0.67s-0.67-0.3-0.67-0.67c0-0.59,0.11-1.16,0.34-1.69c0.22-0.52,0.53-0.98,0.93-1.38 c0.26-0.26,0.69-0.26,0.95,0c0.26,0.26,0.26,0.69,0,0.95C100.07,8.81,99.85,9.13,99.7,9.49z M106.47,12.35 c-0.22,0.52-0.53,0.98-0.93,1.38c-0.4,0.4-0.86,0.71-1.38,0.93c-0.54,0.23-1.11,0.34-1.69,0.34c-0.59,0-1.16-0.12-1.69-0.34 c-0.34-0.15-0.5-0.54-0.36-0.88c0.14-0.34,0.54-0.5,0.88-0.36c0.74,0.31,1.6,0.31,2.33,0c0.36-0.15,0.68-0.37,0.95-0.64 c0.28-0.28,0.49-0.6,0.64-0.95c0.16-0.37,0.24-0.76,0.24-1.17s-0.08-0.8-0.24-1.17c-0.15-0.36-0.37-0.68-0.64-0.95 c-0.28-0.28-0.6-0.49-0.95-0.64c-0.34-0.15-0.5-0.54-0.36-0.88c0.14-0.34,0.54-0.5,0.88-0.36c0.52,0.22,0.98,0.53,1.38,0.93 c0.4,0.4,0.71,0.86,0.93,1.38c0.23,0.54,0.34,1.11,0.34,1.69C106.81,11.24,106.7,11.81,106.47,12.35z"></path> <g> <path class="st1" d="M28.83,21.43v13.8c0,0.55-0.31,0.88-0.86,0.88c-0.55,0-0.88-0.33-0.86-0.9l0.06-12.27l-4.85,7.75 c-0.22,0.37-0.47,0.55-0.79,0.55c-0.31,0-0.57-0.18-0.79-0.55l-4.83-7.72l0.04,12.23c0,0.57-0.31,0.9-0.86,0.9 c-0.57,0-0.88-0.33-0.88-0.88v-13.8c0-0.73,0.41-1.16,1.14-1.16h0.12c0.47,0,0.8,0.24,1.08,0.65l4.99,8.03l4.99-8.03 c0.26-0.41,0.61-0.65,1.08-0.65h0.1C28.42,20.28,28.83,20.71,28.83,21.43z"></path> <path class="st1" d="M43.57,36.06c-0.53,0.16-0.92-0.04-1.1-0.59l-1.2-3.38h-7.15l-1.2,3.38c-0.18,0.55-0.55,0.75-1.1,0.59 c-0.51-0.16-0.73-0.55-0.55-1.12l4.87-13.62c0.22-0.67,0.73-1.04,1.45-1.04h0.22c0.73,0,1.24,0.37,1.45,1.04l4.85,13.62 C44.32,35.51,44.12,35.9,43.57,36.06z M40.74,30.54l-3.04-8.58l-3.02,8.58H40.74z"></path> <path class="st1" d="M54.52,21.16c0,0.51-0.29,0.77-0.8,0.77h-3.81v13.31c0,0.55-0.31,0.88-0.88,0.88c-0.57,0-0.88-0.33-0.88-0.88 V21.92h-3.81c-0.51,0-0.8-0.26-0.8-0.77c0-0.51,0.29-0.79,0.8-0.79h9.38C54.23,20.37,54.52,20.65,54.52,21.16z"></path> <path class="st1" d="M56.74,35.23V21.12c0-0.55,0.31-0.88,0.88-0.88c0.57,0,0.88,0.33,0.88,0.88v14.11c0,0.57-0.31,0.88-0.88,0.88 C57.06,36.12,56.74,35.8,56.74,35.23z"></path> <path class="st1" d="M61.43,30.27v-4.04c0-3.63,2.43-6.05,6.11-6.05c2.4,0,4.44,1.28,5.28,3.1c0.18,0.37,0.1,0.94-0.43,1.14 c-0.51,0.18-0.9-0.06-1.08-0.33c-0.84-1.49-2.24-2.32-3.77-2.32c-2.61,0-4.34,1.83-4.34,4.55v3.85c0,2.65,1.73,4.42,4.36,4.42 c1.77,0,3.18-1.04,3.83-2.36c0.24-0.35,0.61-0.53,1.08-0.35c0.55,0.24,0.65,0.71,0.51,1.02c-0.9,2.1-2.96,3.28-5.42,3.28 C63.87,36.18,61.43,33.82,61.43,30.27z"></path> <path class="st1" d="M75.02,33.13c-0.18-0.35-0.08-0.77,0.47-1.04c0.47-0.24,0.86-0.02,1.02,0.22c0.92,1.47,2.34,2.28,4.06,2.28 c2.43,0,4.06-1.16,4.06-2.87v-0.18c0-4.59-9.64-0.65-9.64-6.77v-0.26c0-2.59,2.26-4.34,5.63-4.34c2.49,0,4.42,1.08,5.28,2.89 c0.24,0.41,0.04,0.9-0.47,1.1c-0.55,0.2-0.9-0.02-1.1-0.31c-0.77-1.34-2.04-2.08-3.75-2.08c-2.3,0-3.83,1.08-3.83,2.69v0.14 c0,4.59,9.64,0.63,9.64,6.79v0.26c0,2.71-2.36,4.53-5.85,4.53C78.02,36.18,75.94,35.1,75.02,33.13z"></path> </g> </g> </svg> 